<?xml version="1.0" encoding="UTF-8" standalone="no"?>
<!-- Created with Inkscape (http://www.inkscape.org/) -->

<svg
   xmlns:dc="http://purl.org/dc/elements/1.1/"
   xmlns:cc="http://creativecommons.org/ns#"
   xmlns:rdf="http://www.w3.org/1999/02/22-rdf-syntax-ns#"
   xmlns:svg="http://www.w3.org/2000/svg"
   xmlns="http://www.w3.org/2000/svg"
   xmlns:sodipodi="http://sodipodi.sourceforge.net/DTD/sodipodi-0.dtd"
   xmlns:inkscape="http://www.inkscape.org/namespaces/inkscape"
   width="744.09448819"
   height="1052.3622047"
   id="svg2"
   version="1.1"
   inkscape:version="0.48.3.1 r9886"
   sodipodi:docname="logo2.svg">
  <defs
     id="defs4">
    <clipPath
       id="clipPath3815"
       clipPathUnits="userSpaceOnUse">
      <path
         id="path3817"
         d="M 0,849.59 0,0 l 849.609,0 0,849.59" />
    </clipPath>
  </defs>
  <sodipodi:namedview
     id="base"
     pagecolor="#ffffff"
     bordercolor="#666666"
     borderopacity="1.0"
     inkscape:pageopacity="0.0"
     inkscape:pageshadow="2"
     inkscape:zoom="1.3293607"
     inkscape:cx="399.80178"
     inkscape:cy="452.58057"
     inkscape:document-units="px"
     inkscape:current-layer="layer1"
     showgrid="false"
     inkscape:window-width="1680"
     inkscape:window-height="1000"
     inkscape:window-x="0"
     inkscape:window-y="25"
     inkscape:window-maximized="1" />
  <metadata
     id="metadata7">
    <rdf:RDF>
      <cc:Work
         rdf:about="">
        <dc:format>image/svg+xml</dc:format>
        <dc:type
           rdf:resource="http://purl.org/dc/dcmitype/StillImage" />
        <dc:title></dc:title>
      </cc:Work>
    </rdf:RDF>
  </metadata>
  <g
     inkscape:label="Layer 1"
     inkscape:groupmode="layer"
     id="layer1">
    <text
       xml:space="preserve"
       style="font-size:56px;font-style:normal;font-weight:normal;line-height:125%;letter-spacing:0px;word-spacing:0px;fill:#000000;fill-opacity:1;stroke:none;font-family:Sans"
       x="233.94704"
       y="652.92206"
       id="text2996"
       sodipodi:linespacing="125%"
       inkscape:export-xdpi="90"
       inkscape:export-ydpi="90"><tspan
         sodipodi:role="line"
         id="tspan2998"
         x="233.94704"
         y="652.92206"
         style="-inkscape-font-specification:Colaborate-Bold;font-family:Colaborate-Bold;font-weight:normal;font-style:normal;font-stretch:normal;font-variant:normal;font-size:58px"><tspan
   style="fill:#8080ff;fill-opacity:1;font-size:58px"
   id="tspan3768">YAPC::Brasil</tspan> 2013</tspan></text>
    <g
       transform="matrix(2.1821923,0,0,-2.1821923,22.123561,724.82748)"
       inkscape:label="ink_ext_XXXXXX"
       id="g3807"
       style="fill:#8080ff;fill-opacity:1">
      <g
         transform="scale(0.1,0.1)"
         id="g3809"
         style="fill:#8080ff;fill-opacity:1">
        <g
           id="g3811"
           style="fill:#8080ff;fill-opacity:1">
          <g
             clip-path="url(#clipPath3815)"
             id="g3813"
             style="fill:#8080ff;fill-opacity:1">
            <path
               id="path3819"
               style="fill:#8080ff;fill-opacity:1;fill-rule:nonzero;stroke:none"
               d="m 457.383,113.301 c -4.317,-0.547 -6.817,-4.641 -6.817,-8.996 0,-16.9534 12.207,-32.3636 26.25,-35.8206 4.231,-1.043 8.254,-0.7227 10.176,3.1875 1.946,3.9023 -0.41,8.2304 -4.316,10.1719 -9.238,4.582 -14.356,8.871 -16.465,23.5082 -0.625,4.316 -4.5,8.515 -8.828,7.949 z m -73.75,-7.949 c -2.11,-14.6372 -7.227,-18.9262 -16.465,-23.5082 -3.906,-1.9415 -6.25,-6.2696 -4.324,-10.1719 1.933,-3.9102 5.965,-4.2305 10.183,-3.1875 14.043,3.457 26.25,18.8672 26.25,35.8206 0,4.355 -2.5,8.449 -6.816,8.996 -4.324,0.566 -8.203,-3.633 -8.828,-7.949 z m 241.262,251.121 c 0,59.523 -35.481,132.773 -134.348,212.832 -17.383,14.074 -30.684,31.007 -35.176,50.226 -0.391,1.68 -0.059,4.246 2.141,4.793 2.332,0.586 4.09,-0.847 5.261,-3.125 11.934,-23.269 20.508,-30.801 39.004,-44.558 59.532,-44.27 170.754,-106.399 170.754,-228.262 0,-94.328 -82.336,-173.809 -117.531,-191.184 -4.766,-2.351 -9.688,-3.242 -11.445,-0.066 -1.797,3.281 0.215,6.738 4.804,11.465 42.805,44.187 76.536,98.906 76.536,187.879 z m -239.27,-2.047 c 0,-54.653 3.809,-97.446 32.148,-175.063 8.34,-22.801 16.27,-24.804 22.59,-25.652 11.797,-1.574 22.508,-4.981 32.664,-9.66 10.157,-4.688 19.805,-10.653 29.453,-19.625 2.852,-2.621 5.168,-4.004 7.832,-4.231 2.657,-0.215 5.665,0.645 9.883,1.707 92.598,28.52 199.66,101.536 199.66,238.352 0,189.336 -266.808,219.687 -268.293,327.09 -0.476,35.117 7.09,48.621 8.614,53.582 0.578,1.906 -0.137,3.547 -1.492,4.035 -1.887,0.691 -3.106,-0.617 -3.731,-1.691 -2.441,-4.2 -3.711,-8.622 -10.383,-6.25 -5.351,1.914 -7.109,20.648 -9.148,26.351 -0.754,2.117 -2.043,3.094 -3.703,2.723 -1.68,-0.379 -2.645,-1.824 -2.305,-3.836 0.918,-5.188 9.113,-35.481 9.113,-76.82 0,-172.305 -52.902,-228.856 -52.902,-331.012 z m 34.797,369.273 c -1.484,46.77 -4.512,87.309 -5.149,95.793 -0.253,3.547 -3.359,4.953 -5.39,4.836 -2.09,-0.129 -4.922,-1.777 -4.727,-5.176 1.289,-30.312 4.141,-76.261 3.156,-119.406 -0.617,-26.945 -4.296,-50.762 -7.55,-64.363 -26.27,-109.809 -138.34,-153.418 -142.93,-270.707 -2.07,-53.133 7.656,-137.84 119.387,-215.086 3.816,-2.649 9.824,-5.02 13.777,-1.211 2.629,2.539 4.316,6.789 -1.289,14.851 -36.953,53.157 -76.355,108.047 -76.355,187.95 0,74.316 29.441,117.433 57.8,163.632 23.938,39.004 51.485,81.75 49.922,169.692 -0.234,13.258 -0.222,25.465 -0.652,39.195 z M 182.93,364.031 c 6.828,120.996 164.179,217.531 197.812,284.27 11.25,22.312 14.875,34.304 14.875,71.14 0,17.375 -3.195,56.137 -3.41,59.184 -0.293,3.965 -2.937,5.184 -5.215,5.039 -2.324,-0.148 -5.027,-1.613 -4.844,-5.41 0.196,-3.82 2.5,-38.949 2.422,-63.164 -0.097,-28.481 -7.89,-40.481 -9.472,-44.692 -33.145,-88.062 -247.137,-134.597 -247.137,-310.144 0,-141.172 116.543,-214.793 210.898,-239.453 3.973,-1.028 8.016,-0.227 9.559,3.308 1.602,3.594 -0.332,7.805 -3.836,9.368 C 236.574,189.57 177.414,266.289 182.93,364.031 z M 425.43,56.2578 c 4.726,0 7.968,3.8399 7.968,8.5469 l 0.579,49.0743 c 0,4.695 -3.821,8.523 -8.547,8.523 -4.707,0 -8.535,-3.828 -8.535,-8.523 l 0.566,-49.0743 c 0,-4.707 3.262,-8.5469 7.969,-8.5469 z M 849.609,424.824 C 849.609,190.184 659.414,0 424.805,0 190.195,0 0,190.184 0,424.824 0,659.434 190.195,849.59 424.805,849.59 c 234.609,0 424.804,-190.156 424.804,-424.766"
               inkscape:connector-curvature="0" />
          </g>
        </g>
      </g>
    </g>
  </g>
</svg>
